<?xml version="1.0" standalone="yes"?>

<svg version="1.1" viewBox="0.0 0.0 192.0 192.0" fill="none" stroke="none" stroke-linecap="square" stroke-miterlimit="10" xmlns="http://www.w3.org/2000/svg" xmlns:xlink="http://www.w3.org/1999/xlink"><clipPath id="p.0"><path d="m0 0l192.0 0l0 192.0l-192.0 0l0 -192.0z" clip-rule="nonzero"></path></clipPath><g clip-path="url(#p.0)"><path fill="#000000" fill-opacity="0.0" d="m0 0l192.0 0l0 192.0l-192.0 0z" fill-rule="evenodd"></path><path fill="#000000" fill-opacity="0.0" d="m31.542116 185.33858c-8.223061 0 -14.889168 -6.666107 -14.889168 -14.88916l0 -59.56025c0 -8.223061 -6.666108 -14.889168 -14.889169 -14.889168c8.223061 0 14.889169 -6.666107 14.889169 -14.889168l0 -59.56025l0 0c0 -8.22306 6.666107 -14.889168 14.889168 -14.889168l128.91577 0c3.9488525 0 7.735962 1.5686755 10.528229 4.3609366c2.7922668 2.7922602 4.3609314 6.579378 4.3609314 10.528231l0 59.56025c0 8.223061 6.666107 14.889168 14.889175 14.889168c-8.223068 0 -14.889175 6.666107 -14.889175 14.889168l0 59.56025c0 8.223053 -6.666107 14.88916 -14.88916 14.88916z" fill-rule="evenodd"></path><path fill="#000000" fill-opacity="0.0" d="m31.542116 185.33858c-8.223061 0 -14.889168 -6.666107 -14.889168 -14.88916l0 -59.56025c0 -8.223061 -6.666108 -14.889168 -14.889169 -14.889168c8.223061 0 14.889169 -6.666107 14.889169 -14.889168l0 -59.56025l0 0c0 -8.22306 6.666107 -14.889168 14.889168 -14.889168m128.91577 0c3.9488525 0 7.735962 1.5686755 10.528229 4.3609366c2.7922668 2.7922602 4.3609314 6.579378 4.3609314 10.528231l0 59.56025c0 8.223061 6.666107 14.889168 14.889175 14.889168c-8.223068 0 -14.889175 6.666107 -14.889175 14.889168l0 59.56025c0 8.223053 -6.666107 14.88916 -14.88916 14.88916" fill-rule="evenodd"></path><path stroke="#000000" stroke-width="2.0" stroke-linejoin="round" stroke-linecap="butt" d="m31.542116 185.33858c-8.223061 0 -14.889168 -6.666107 -14.889168 -14.88916l0 -59.56025c0 -8.223061 -6.666108 -14.889168 -14.889169 -14.889168c8.223061 0 14.889169 -6.666107 14.889169 -14.889168l0 -59.56025l0 0c0 -8.22306 6.666107 -14.889168 14.889168 -14.889168m128.91577 0c3.9488525 0 7.735962 1.5686755 10.528229 4.3609366c2.7922668 2.7922602 4.3609314 6.579378 4.3609314 10.528231l0 59.56025c0 8.223061 6.666107 14.889168 14.889175 14.889168c-8.223068 0 -14.889175 6.666107 -14.889175 14.889168l0 59.56025c0 8.223053 -6.666107 14.88916 -14.88916 14.88916" fill-rule="evenodd"></path><path fill="#5e7fb2" d="m54.188976 96.0l41.811024 -60.14173l41.81102 60.14173l-41.81102 60.14174z" fill-rule="evenodd"></path><path stroke="#000000" stroke-width="2.0" stroke-linejoin="round" stroke-linecap="butt" d="m54.188976 96.0l41.811024 -60.14173l41.81102 60.14173l-41.81102 60.14174z" fill-rule="evenodd"></path></g></svg>

